<svg xmlns="http://www.w3.org/2000/svg" width="100" height="81"><path d="M10.555 60.223c-.492-.11-1.227-.422-2.895-1.239-3.293-1.613-5.058-3.535-5.61-6.093-.167-.77-.218-1.446-.187-2.5.063-2.168.543-3.836 1.543-5.352.262-.398.516-.7 1.012-1.195.781-.774 1.477-1.266 2.559-1.793.976-.477 1.62-.707 3.226-1.125.258-.067.399-.125.399-.172 0-.043.058-.066.16-.066h.168l.027.62c.02.344.05 1.04.063 1.547l.035.934-.36.055c-2.004.316-3.332.894-4.398 1.91a6.5 6.5 0 0 0-1.434 1.96c-.539 1.106-.851 2.196-.91 3.231-.098 1.805.785 3.407 2.59 4.68.82.582 2.266 1.266 3.867 1.82.36.125.781.29.934.367.156.079.308.141.347.141.079 0 .114.27.157 1.387l.03.777-.19.059a2.6 2.6 0 0 1-1.133.047M80.8 42.598c.02-.282.036-.973.036-1.532 0-1.007 0-1.011.113-1.058.059-.024.324-.113.594-.196a8.8 8.8 0 0 0 2.113-1.054c.598-.43 1.543-1.367 2-1.985 1.149-1.558 2-3.586 2.574-6.105.399-1.75.73-2.734 1.25-3.695 1.036-1.918 2.63-3.313 4.88-4.27.87-.375 1.296-.469 2.14-.465.828 0 1.145.09 1.414.39.148.169.148.184.129.544-.031.488-.203.848-.617 1.285-.446.473-1.168.934-2.461 1.57-1.586.785-2.035 1.172-2.836 2.434-.723 1.14-1.328 2.523-2.344 5.367-.824 2.313-1.375 3.578-1.855 4.266-.848 1.218-2.618 2.758-4.383 3.828-.848.512-2.356 1.2-2.629 1.2h-.145Zm0 0" style="stroke:none;fill-rule:nonzero;fill:#ffce61;fill-opacity:1"/><path d="M10.238 60.781c-.718-.195-3.043-1.304-4.23-2.015-3.348-2.008-4.817-4.63-4.676-8.352.059-1.625.316-2.906.844-4.18.844-2.05 2.61-3.78 4.894-4.808 1.11-.496 3.051-1.078 3.59-1.078.219 0 .219.004.254.183.055.348.035.645-.043.645-.039 0-.074-.031-.074-.07s-.02-.083-.043-.098c-.055-.031-1.524.351-2.098.547-1.078.375-1.953.8-2.867 1.41-.781.515-1.754 1.484-2.238 2.222-.969 1.465-1.469 3.16-1.543 5.204-.137 3.859 1.605 6.39 5.797 8.449 2.566 1.254 2.957 1.383 3.785 1.176.074-.016.133-.063.133-.098 0-.04.027-.066.066-.066.09 0 .16.859.078.941-.035.035-.293.059-.672.066-.48.008-.691-.007-.957-.078m0 0" style="stroke:none;fill-rule:nonzero;fill:#eea91d;fill-opacity:1"/><path d="M11.625 58.172c0-.04-.035-.07-.074-.07-.043 0-.2-.067-.356-.141a10 10 0 0 0-.933-.371c-2.899-1.008-4.504-2.016-5.578-3.485-.41-.558-.723-1.355-.848-2.132-.129-.844.035-2.196.402-3.278.223-.672.77-1.746 1.137-2.23a6.9 6.9 0 0 1 2.36-1.961c.652-.328 1.702-.629 2.808-.8.246-.04.352-.079.352-.126 0-.094.125-.09.164.008.015.043.03.242.03.453v.375l-.546.086c-1.191.195-2.363.637-3.168 1.2-.445.304-1.191 1.073-1.496 1.53-.574.864-1.035 2.051-1.219 3.106-.234 1.363.047 2.477.91 3.605.32.422.606.696 1.14 1.09 1 .739 2.067 1.254 4.087 1.969.281.098.61.23.73.29l.22.105.015.43c.008.355 0 .421-.063.421a.077.077 0 0 1-.074-.074M80.797 43.281c.012-.32.035-.476.078-.492.035-.012.059.023.059.082 0 .094.03.09.476-.101 1.66-.692 3.153-1.641 4.656-2.958.579-.507 1.375-1.374 1.715-1.863.48-.691 1.031-1.953 1.86-4.265 1.015-2.844 1.617-4.227 2.343-5.371.797-1.258 1.25-1.649 2.836-2.43.618-.301 1.352-.707 1.633-.895.856-.574 1.367-1.222 1.442-1.808.023-.207.007-.246-.13-.407-.245-.28-.59-.382-1.265-.386-.687 0-1.187.113-1.996.46-2.246.958-3.844 2.356-4.879 4.27-.52.965-.852 1.945-1.25 3.695-.574 2.52-1.426 4.551-2.574 6.106-.457.617-1.399 1.559-1.996 1.984a8.7 8.7 0 0 1-2.118 1.055c-.652.207-.703.23-.703.316 0 .04-.035.075-.074.075-.058 0-.074-.078-.074-.43v-.426l.46-.137c3.063-.917 5.157-3.664 6.298-8.226.105-.426.219-.906.246-1.07.035-.16.148-.586.25-.946.89-3.113 2.597-5.191 5.41-6.574 1.316-.644 1.96-.82 3.05-.82.59 0 .774.02 1.048.101.754.235 1.09.63 1.09 1.293 0 1.012-.61 1.856-1.97 2.715-.245.152-.921.516-1.507.805-1.211.594-1.535.82-2.05 1.472-.84 1.055-1.567 2.579-2.622 5.504-1.41 3.922-1.687 4.48-2.816 5.754-1.059 1.192-2.72 2.492-4.309 3.38-1.035.57-2.09 1.007-2.437 1.007h-.196Zm0 0" style="stroke:none;fill-rule:nonzero;fill:#eea91d;fill-opacity:1"/><path d="m18.871 77.555-3.574-.024-.035-.488c-.012-.266-.051-1.063-.082-1.773-.028-.711-.078-1.649-.102-2.09-.105-1.82-.195-3.551-.242-4.72-.031-.683-.074-1.581-.098-1.995a174 174 0 0 1-.097-1.871c-.032-.614-.075-1.524-.098-2.02-.031-.496-.082-1.617-.121-2.504l-.149-2.992a1492 1492 0 0 1-.312-6.371c-.031-.52-.059-1.168-.07-1.434-.016-.27-.067-1.34-.121-2.382-.06-1.043-.122-2.414-.153-3.043a80 80 0 0 0-.097-1.97 125 125 0 0 1-.094-1.823c-.028-.551-.086-1.774-.133-2.723a81 81 0 0 1-.086-3.793c.004-2.117.055-2.965.29-4.574.21-1.453.554-3.094.843-4.035.05-.176.156-.5.223-.73.066-.227.203-.634.3-.9.098-.269.25-.706.348-.972.09-.27.238-.637.328-.828.09-.184.207-.453.258-.59.273-.68 1.133-2.344 1.719-3.3 2.437-3.993 5.543-7.15 9.527-9.688.937-.606 2.93-1.664 3.707-1.984.168-.075.395-.168.5-.215 1.805-.817 4.86-1.743 7.008-2.125l1.094-.192c.726-.133 2.488-.344 3.402-.414 1.91-.14 5.168-.14 6.469-.004 1.804.196 2.062.235 3.718.543 1.438.274 2.563.602 4.524 1.301.504.176 1.984.809 2.094.887.027.02.23.113.46.218.231.094.59.278.801.399.215.121.555.309.754.418a30 30 0 0 1 2.805 1.805c1.594 1.195 2.246 1.754 3.543 3.062 1.14 1.149 1.996 2.117 2.738 3.11.348.46.672.902.723.98.047.082.246.367.43.633.374.531 1.164 1.808 1.593 2.578a37 37 0 0 1 3.414 8.488c.227.871.567 2.305.614 2.578.02.121.12.742.23 1.387.547 3.285.594 4.582.477 13.105-.043 3.196-.102 7.532-.125 9.633-.028 2.102-.067 5.39-.098 7.32-.027 1.926-.074 5.22-.098 7.317-.11 8.746-.105 8.703-.175 8.762-.086.074-16.418.062-16.461-.012-.016-.027-.047-.293-.059-.598-.098-1.808-1.363-3.293-3.152-3.703-.317-.074-.883-.09-4.692-.125-10.48-.094-18.218-.129-18.539-.086-.402.059-.441.067-.867.25-1.434.621-2.312 1.86-2.484 3.504-.024.238-.043.29-.157.348-.16.078-.882.34-1.152.41-.234.066-5.812.094-11.21.055m44.734-31.157c1.633-.37 2.958-1.57 3.622-3.304a5.96 5.96 0 0 0-.051-4.36c-.352-.847-.57-1.195-1.168-1.804-1.328-1.367-2.91-1.817-4.516-1.27-1.258.426-2.457 1.59-3.02 2.938-.37.89-.495 1.468-.495 2.312 0 1.656.578 3.086 1.703 4.203.5.496.86.75 1.41.985.996.422 1.648.5 2.515.3m-34.515-.043c2.36-.414 4.101-2.44 4.09-4.761-.004-.73-.117-1.227-.426-1.903-.25-.53-.774-1.27-1.106-1.543-.082-.074-.257-.214-.382-.32-.278-.234-.97-.598-1.457-.758-.2-.07-.602-.156-.895-.199-.5-.078-.566-.074-1.043.004-1.976.32-3.406 1.492-3.996 3.281-.344 1.063-.355 1.793-.04 2.848.669 2.223 3.052 3.738 5.255 3.351m19.574-4.96c1.715-.293 2.95-1.13 3.606-2.434.167-.324.39-1.094.453-1.555.101-.73-.004-1.984-.2-2.3a.7.7 0 0 0-.257-.215c-.18-.094-.196-.094-.38-.012a.7.7 0 0 0-.284.25c-.098.156-.098.187-.047.465.09.445.074 1.777-.024 2.222-.097.47-.394 1.079-.676 1.399-.421.472-1.156.86-1.886.992-.172.027-.403.07-.524.09-.37.074-1.879.055-2.36-.024-1.687-.273-2.788-1.234-3.253-2.859a5.4 5.4 0 0 1-.172-.867c-.047-.496-.12-.64-.402-.793-.153-.082-.192-.086-.332-.027-.375.156-.461.402-.364 1.039.13.87.508 1.84.985 2.511.844 1.184 2.18 1.946 3.808 2.164.61.082 1.676.059 2.31-.046m-21.437-6.09c.148-.149.226-.29.347-.649.45-1.308 1.168-2.363 1.836-2.699l.285-.145h.973c.844.004 1.02.02 1.36.11.734.2 1.699.762 2.429 1.406.352.32.586.356.895.129.304-.23.382-.562.191-.828-.27-.383-1.438-1.23-2.203-1.598-1.242-.597-2.613-.789-3.762-.527-1.305.297-2.594 1.789-3.289 3.82-.176.512-.18.524-.098.692.137.289.38.468.633.468.18 0 .242-.03.403-.18m39.554-1.703c.801-.22 1.496-.977 1.676-1.84.168-.797-.281-1.766-1.035-2.246-.34-.22-.89-.403-1.2-.403-.98 0-1.972.813-2.238 1.825-.101.402-.093.656.047 1.078.293.859.969 1.472 1.817 1.644.347.067.507.059.933-.058m0 0" style="stroke:none;fill-rule:nonzero;fill:#3fbab8;fill-opacity:1"/><path d="M14.547 78.938a1.17 1.17 0 0 1-.586-.696c-.031-.097-.117-1.5-.195-3.117-.079-1.621-.168-3.383-.196-3.918-.062-1.176-.3-6.05-.437-8.828-.254-5.262-.32-6.649-.39-7.879-.028-.496-.083-1.61-.122-2.48l-.168-3.477c-.055-1.043-.117-2.355-.148-2.918l-.196-3.89c-.359-7.212-.382-7.997-.289-9.778.192-3.668.918-7.062 2.211-10.36a32 32 0 0 1 2.313-4.695c1.715-2.843 4.02-5.539 6.515-7.617 3.832-3.183 8.137-5.34 13.18-6.601 2.594-.653 4.938-.993 7.883-1.157 1.176-.062 4.219-.03 5.226.055 3.438.293 6.454.984 9.446 2.168 4.86 1.93 9.297 5.215 12.652 9.379.676.832.82 1.027 1.309 1.707 2.804 3.941 4.902 8.64 6.02 13.504.093.41.195.836.218.941.152.63.426 2.242.559 3.332.293 2.32.39 4.239.351 7.004-.02 1.11-.055 3.867-.078 6.13-.059 4.718-.129 10.1-.2 14.519-.023 1.687-.058 4.148-.073 5.472-.059 5.637-.122 10.403-.145 11.332-.027 1.157-.074 1.368-.375 1.657-.375.367.36.34-9.45.328l-8.804-.016-.223-.133c-.43-.25-.578-.554-.578-1.172 0-.796-.078-1.226-.297-1.683-.32-.656-.867-1.114-1.601-1.34-.242-.078-.848-.094-7.004-.152-15.922-.145-15.742-.145-16.125-.028-.715.219-1.297.703-1.602 1.348-.191.398-.27.797-.27 1.418v.445l-.241.219c-.43.383-1.364.805-2.227 1.012-.39.086-.66.09-8.004.09h-7.601Zm15.39-1.583c.278-.078.997-.335 1.153-.414.113-.058.133-.105.156-.343.168-1.645 1.04-2.875 2.488-3.508.649-.285.54-.278 4.157-.266 4.289.012 18.02.106 19.066.13.926.026 1.32.097 1.953.37 1.34.574 2.285 1.934 2.356 3.38.011.269.03.534.047.597l.019.11 7.7.003c4.23.004 7.85.012 8.038.016.211.004.375-.02.422-.055.07-.062.09-.848.16-7.383.012-1.125.032-2.644.047-3.379.016-.734.04-2.586.055-4.113.012-1.52.043-3.535.066-4.473.02-.933.04-2.586.043-3.672 0-1.085.016-2.382.032-2.894.062-2.25.18-13.25.148-14.324-.05-2.16-.188-3.606-.523-5.617-.114-.641-.215-1.266-.235-1.387-.043-.274-.383-1.707-.613-2.578a36.8 36.8 0 0 0-3.414-8.489c-.426-.765-1.215-2.046-1.59-2.574-.184-.27-.383-.55-.434-.633a32 32 0 0 0-.718-.984c-.746-.992-1.602-1.96-2.739-3.11-1.297-1.304-1.949-1.867-3.547-3.062-.73-.543-2.109-1.43-2.8-1.805-.2-.105-.54-.296-.754-.418-.215-.12-.574-.3-.801-.398a8 8 0 0 1-.465-.219c-.105-.078-1.59-.71-2.09-.886a47 47 0 0 0-2.797-.91c-1.43-.391-4.054-.829-5.714-.946-.985-.074-1.262-.078-2.7-.078-1.902-.008-3.484.082-4.863.262l-.969.125c-.23.03-.578.082-.777.12-.207.036-.695.126-1.094.192-2.152.383-5.207 1.309-7.011 2.125-.106.051-.329.14-.5.215-.778.32-2.766 1.383-3.707 1.984-.883.559-1.211.793-2.09 1.454-1.223.93-1.942 1.546-3 2.601-1.735 1.719-3.118 3.48-4.438 5.633-.582.96-1.445 2.621-1.715 3.305-.054.136-.172.402-.258.586a10 10 0 0 0-.332.828c-.097.27-.25.707-.347.972-.094.27-.23.672-.301.899-.066.23-.168.554-.223.73-.285.946-.632 2.582-.84 4.04-.23 1.573-.289 2.468-.289 4.425a77 77 0 0 0 .082 3.648c.051.946.11 2.172.133 2.723s.067 1.371.098 1.824c.055.922.082 1.54.121 2.48.016.349.043 1.016.074 1.485.024.465.059 1.192.07 1.602.02.414.055.969.079 1.238.023.262.043.7.043.965 0 .273.02.789.05 1.156.024.36.067 1.172.098 1.797.063 1.398.18 3.77.242 4.89.024.458.059 1.141.075 1.532.02.387.039.781.046.875.004.094.032.598.043 1.117.02.524.055 1.238.079 1.582.027.352.058.984.074 1.41.015.43.039.91.047 1.07.015.16.035.536.05.833.016.293.043.964.075 1.484.023.516.066 1.473.093 2.113.028.649.059 1.328.075 1.508.039.531.164 2.957.273 5.274.027.656.066 1.207.086 1.226.039.043 5.41.067 10.707.055 2.48-.012 3.633-.031 3.77-.07m0 0" style="stroke:none;fill-rule:nonzero;fill:#0eaeb8;fill-opacity:1"/><path d="M62.04 46.598a6.3 6.3 0 0 1-1.282-.43c-.824-.387-1.723-1.29-2.258-2.281-.242-.442-.504-1.25-.59-1.805-.105-.61-.105-1.746-.008-2.273a6 6 0 0 1 1.489-2.985c.964-1.031 2.082-1.535 3.406-1.535 1.332 0 2.34.45 3.355 1.492.598.614.817.961 1.168 1.805.317.766.434 1.422.438 2.383 0 .965-.098 1.523-.383 2.273-.664 1.711-1.895 2.856-3.55 3.285-.473.13-1.321.157-1.786.07M27.402 46.477c-.98-.227-1.726-.61-2.41-1.262a4.89 4.89 0 0 1-1.515-4.055c.07-.656.351-1.578.632-2.039.641-1.059 1.559-1.8 2.692-2.18.379-.125 1.25-.289 1.558-.289.368 0 1.211.141 1.598.27.484.16 1.18.527 1.453.762.125.105.3.246.383.32.332.27.86 1.012 1.105 1.539.332.715.438 1.21.434 2.07 0 .746-.074 1.153-.332 1.867-.336.922-1.254 1.95-2.223 2.485-.996.543-2.328.75-3.375.512M48.348 40.23c0-.039.058-.082.129-.101.074-.016.152-.055.168-.078.046-.078.285.004.285.101 0 .059-.055.094-.18.118-.285.042-.402.035-.402-.04M66.39 29.066c0-.062.044-.093.145-.109.086-.016.149-.004.149.02 0 .02.035.039.07.039.039 0 .074.03.074.07 0 .055-.058.074-.219.074-.18 0-.218-.015-.218-.094M.027 51.523c-.047-.183-.03-.234.07-.234.079 0 .098.035.098.172 0 .195-.117.238-.168.062m0 0" style="stroke:none;fill-rule:nonzero;fill:#0eaeb8;fill-opacity:1"/><path d="M14.883 80.328a.5.5 0 0 0-.203-.05c-.22 0-.754-.239-1.051-.47a2.53 2.53 0 0 1-.918-1.351c-.059-.227-.113-.918-.188-2.48l-.07-1.461c-.027-.48-.07-1.356-.098-1.946-.03-.59-.074-1.472-.097-1.968-.031-.497-.082-1.579-.121-2.41-.04-.825-.098-1.989-.13-2.579-.027-.586-.077-1.605-.105-2.261l-.058-1.192-.461.02a5.2 5.2 0 0 1-1.746-.266c-.637-.219-2.825-1.262-3.825-1.82-2.218-1.246-3.804-2.785-4.734-4.61-.617-1.21-.883-2.218-1.035-3.863-.066-.723-.016-1.77.133-2.812.496-3.442 2.281-6.18 5.144-7.871 1.34-.79 2.86-1.376 4.575-1.758.355-.082.683-.145.726-.145.074 0 .086-.05.055-.45-.172-2.698-.219-5.57-.121-7.042.207-3.125.773-6 1.734-8.816C15.5 13.305 22.445 6.195 31.891 2.648 35.434 1.32 39.359.516 43.53.27c1.328-.083 5.063-.04 6.13.066 4.374.437 8.218 1.535 11.89 3.387 7.418 3.746 13.148 10.234 16.488 18.675 1.828 4.633 2.828 9.672 2.957 14.997.012.363.031.68.05.695.063.07 1.063-.383 1.493-.676.758-.516 1.422-1.2 1.992-2.066.883-1.32 1.469-2.88 2.02-5.328.27-1.2.52-2.02.886-2.848.82-1.895 2.012-3.41 3.614-4.613 1.183-.887 3.023-1.766 4.285-2.036.582-.128 1.828-.128 2.328 0 1.625.407 2.586 1.735 2.27 3.141-.297 1.29-1.02 2.219-2.47 3.16-.25.168-.972.555-1.597.863-1.066.524-1.168.586-1.46.883-.872.883-1.528 2.25-2.856 5.942-.89 2.468-1.426 3.695-2 4.547-.63.937-1.86 2.199-3.09 3.156-1.594 1.242-3.606 2.34-5.145 2.812l-.37.11-.032 1.07c-.035 1.258-.059 2.984-.125 8.39-.027 2.18-.059 4.481-.074 5.11-.016.625-.035 2.148-.047 3.379-.145 12.285-.195 15.078-.277 15.371a3.3 3.3 0 0 1-.496.961c-.305.379-.946.766-1.457.875-.325.07-17.567.11-17.711.039a1.5 1.5 0 0 0-.293-.074c-.606-.082-1.38-.7-1.7-1.344-.222-.457-.27-.73-.27-1.5 0-.57-.01-.637-.128-.875a1.2 1.2 0 0 0-.664-.582c-.149-.05-6.582-.129-14.602-.176-1.765-.015-4.28-.035-5.593-.043-2.266-.027-2.395-.02-2.579.067a1.26 1.26 0 0 0-.527.437c-.144.2-.164.317-.203 1.113-.035.766-.133.985-.633 1.454-.68.644-1.855 1.191-3.137 1.46-.32.067-1.246.079-7.902.094-4.851.008-7.562-.008-7.613-.035m15.379-1.504c.867-.203 1.8-.625 2.23-1.011l.242-.22v-.44c0-.626.078-1.024.266-1.423.3-.632.883-1.12 1.582-1.34.305-.097.422-.105 3.477-.093 1.742 0 3.414.016 3.722.02.559.019 4.008.054 11.844.124 4.563.04 4.324.02 4.953.356.688.367 1.2 1.125 1.297 1.933.023.223.047.61.047.86 0 .617.152.918.578 1.172l.227.133 8.656.011c9.648.016 8.93.04 9.305-.324.304-.297.343-.488.374-1.828.028-1.418.106-7.652.145-11.36.016-1.48.035-3.234.047-3.89.016-.656.035-2.074.05-3.16.036-2.555.067-4.813.098-6.93.02-.934.047-3.55.078-5.812.024-2.262.06-4.954.079-5.985.039-2.601-.059-4.562-.352-6.86-.137-1.085-.41-2.702-.559-3.327-.023-.11-.128-.532-.218-.946-1.008-4.363-2.89-8.808-5.27-12.406-.355-.543-1.18-1.7-1.472-2.07-1.06-1.336-1.606-1.965-2.567-2.957-3.07-3.145-6.7-5.578-10.672-7.153-2.992-1.187-5.972-1.875-9.445-2.175-.844-.067-4.234-.098-5.18-.04-4.285.258-8.05 1.032-11.617 2.383-5.3 2.016-9.848 5.274-13.293 9.532-1.75 2.164-3.074 4.343-4.297 7.074-.238.535-.742 1.84-.988 2.578a33.3 33.3 0 0 0-1.66 8.73c-.09 1.79-.067 2.497.289 9.606.078 1.582.164 3.332.195 3.894.027.563.09 1.875.145 2.918s.125 2.606.168 3.477c.039.871.093 1.984.125 2.48.066 1.23.132 2.618.386 7.88.137 2.777.375 7.652.438 8.828.031.535.117 2.296.195 3.914.078 1.62.164 3.023.195 3.117.082.289.305.554.59.695l.258.129h7.453c7.2 0 7.469-.004 7.856-.094M11.71 60.652c.039-.039 0-1.101-.098-2.843-.011-.262-.02-.27-.23-.375a10 10 0 0 0-.73-.286c-2.02-.714-3.09-1.23-4.087-1.972-.714-.528-1.191-1.051-1.566-1.719-.383-.687-.52-1.18-.559-2.043a5.3 5.3 0 0 1 .07-1.223c.188-1.054.65-2.242 1.223-3.109.301-.457 1.051-1.223 1.493-1.531.808-.559 1.98-1 3.175-1.196l.551-.093-.027-.461c-.016-.254-.051-.989-.078-1.63-.067-1.507-.086-1.679-.188-1.679-.172 0-1.496.356-2.152.578-1.762.606-3.074 1.367-4.219 2.457-1.32 1.27-2.168 2.852-2.559 4.805-.761 3.785.133 6.84 2.622 8.988 1.062.918 2.058 1.524 3.988 2.442 1.851.883 2.129.976 2.855.949.266-.004.496-.031.516-.059m-.203-5.187c-.016-.25-.055-.945-.078-1.547-.024-.605-.082-1.742-.121-2.531-.172-3.293-.27-5.297-.27-5.461 0-.172-.008-.18-.148-.18-.29 0-1.286.25-1.77.441-1.441.575-2.383 1.618-2.918 3.223-.226.68-.316 1.164-.324 1.727-.008.613.066.96.297 1.441.594 1.219 2.054 2.184 4.742 3.133.297.102.555.191.582.195.023 0 .027-.187.008-.441m70.125-12.086c2.777-1.09 5.949-3.645 7.058-5.684.403-.738.79-1.691 1.704-4.23 1.054-2.93 1.78-4.45 2.62-5.504.516-.652.837-.883 2.047-1.477 1.583-.773 2.336-1.28 2.872-1.93.324-.394.496-.75.562-1.171.07-.403.012-.668-.207-.914-.371-.418-.902-.606-1.738-.606-.934 0-1.653.207-2.903.825-2.816 1.378-4.523 3.457-5.414 6.57-.101.36-.214.789-.246.949-.336 1.703-.937 3.516-1.582 4.781-1.21 2.383-2.86 3.88-4.96 4.512l-.462.137v1.222c0 .664-.015 1.567-.035 1.989l-.031.773.137-.035c.074-.02.336-.11.578-.207m0 0" style="stroke:none;fill-rule:nonzero;fill:#353533;fill-opacity:1"/><path d="M46.21 41.586c-1.628-.219-2.964-.98-3.808-2.164-.48-.68-.855-1.633-.992-2.547-.12-.797-.027-1.121.371-1.29.168-.073.262-.085.403-.054.43.094.566.29.629.875.144 1.469.898 2.692 2.03 3.282.766.398 1.579.542 2.81.5 1.449-.051 2.425-.407 3.058-1.122.281-.324.578-.933.676-1.394.086-.41.101-1.606.023-1.922-.074-.3-.058-.602.04-.762.1-.18.382-.332.616-.332.215 0 .512.145.606.301.2.32.308 1.773.2 2.578-.067.473-.286 1.242-.454 1.57-.656 1.305-1.887 2.137-3.61 2.434-.617.113-1.968.137-2.597.047M26.527 35.629c-.164-.055-.437-.324-.511-.52-.078-.21-.047-.433.132-.949.7-2.02 1.98-3.5 3.282-3.805.175-.043.59-.085.922-.105 1.738-.094 3.324.488 4.859 1.77.508.43.59.558.59.906 0 .465-.27.789-.719.836-.281.035-.512-.047-.773-.285-.73-.649-1.692-1.207-2.426-1.407-.328-.09-.528-.11-1.215-.11-.824-.003-.828-.003-1.11.142-.663.332-1.378 1.375-1.828 2.668-.19.539-.214.585-.41.734-.18.137-.558.195-.793.125M65.7 33.805c-1.59-.328-2.41-2.125-1.638-3.578.184-.34.66-.813.997-.985.441-.222.773-.289 1.257-.262.965.063 1.7.536 2.094 1.352a2.44 2.44 0 0 1-.398 2.719c-.606.656-1.461.933-2.313.754m0 0" style="stroke:none;fill-rule:nonzero;fill:#353533;fill-opacity:1"/></svg>