<svg width="76" height="62" viewBox="0 0 76 62" fill="none" xmlns="http://www.w3.org/2000/svg">
<g clip-path="url(#clip0_1078_496)">
<path d="M55.5171 20.5L39.4171 29.8C38.6171 30.2 37.4171 30.2 36.7171 29.8L20.6171 20.5C19.8171 20.1 19.8171 19.4 20.6171 18.9L36.7171 9.60005C37.5171 9.20005 38.7171 9.20005 39.4171 9.60005L55.5171 18.9C56.2171 19.4 56.2171 20.1 55.5171 20.5Z" fill="#5C6064"/>
<path d="M72.0172 35.7L42.9172 18.9C40.2172 17.3 35.8172 17.3 33.1172 18.9L4.01719 35.7C1.31719 37.3 1.31719 39.8 4.01719 41.4L33.1172 58.2C35.8172 59.8 40.2172 59.8 42.9172 58.2L72.0172 41.4C74.7172 39.8 74.7172 37.2 72.0172 35.7Z" fill="#DCDEE0"/>
<path d="M38.0172 60.1999C36.0172 60.1999 34.1172 59.6999 32.6172 58.8999L3.61719 42.0999C2.01719 41.1999 1.11719 39.8999 1.11719 38.4999V22.5999C1.11719 21.1999 2.01719 19.8999 3.61719 18.9999L32.6172 2.1999C34.0172 1.3999 35.9172 0.899902 38.0172 0.899902C40.0172 0.899902 41.9172 1.3999 43.4172 2.1999L72.4172 18.9999C74.0172 19.8999 74.9172 21.1999 74.9172 22.5999V38.4999C74.9172 39.8999 74.0172 41.1999 72.4172 42.0999L43.4172 58.8999C41.9172 59.6999 40.0172 60.1999 38.0172 60.1999Z" fill="#DCDEE0"/>
<path d="M38.0173 1.8C39.8173 1.8 41.6173 2.2 42.9173 3L72.0173 19.8C73.4173 20.6 74.0173 21.6 74.0173 22.6V38.5C74.0173 39.5 73.3173 40.6 72.0173 41.3L42.9173 58.1C41.5173 58.9 39.8173 59.3 38.0173 59.3C36.2173 59.3 34.4173 58.9 33.1173 58.1L4.01729 41.3C2.61729 40.5 2.01729 39.5 2.01729 38.5V22.6C2.01729 21.6 2.71729 20.5 4.01729 19.8L33.1173 3C34.4173 2.2 36.2173 1.8 38.0173 1.8ZM38.0173 0C35.8173 0 33.8173 0.5 32.2173 1.4L3.11729 18.2C1.31729 19.3 0.217285 20.9 0.217285 22.6V38.5C0.217285 40.2 1.31729 41.8 3.11729 42.9L32.2173 59.7C33.8173 60.6 35.8173 61.1 38.0173 61.1C40.2173 61.1 42.2173 60.6 43.8173 59.7L72.9173 42.9C74.8173 41.8 75.8173 40.2 75.8173 38.5V22.6C75.8173 20.9 74.7173 19.3 72.9173 18.2L43.8173 1.4C42.2173 0.5 40.2173 0 38.0173 0Z" fill="#787C80"/>
<path d="M72.0172 19.7001L42.9172 3.00005C40.2172 1.40005 35.8172 1.40005 33.1172 3.00005L4.01719 19.7001C1.31719 21.3001 1.31719 23.8 4.01719 25.4L33.1172 42.2001C35.8172 43.8001 40.2172 43.8001 42.9172 42.2001L72.0172 25.4C74.7172 23.9 74.7172 21.3001 72.0172 19.7001Z" fill="#DCDEE0"/>
<path d="M68.2173 23.1L40.4173 39.2C39.1173 40 37.0173 40 35.7173 39.2L7.81729 23.1C6.51729 22.3 6.51729 21.1 7.81729 20.4L35.6173 4.29995C36.9173 3.49995 39.0173 3.49995 40.3173 4.29995L68.2173 20.4C69.5173 21.1 69.5173 22.4 68.2173 23.1Z" fill="white"/>
<path d="M9.51738 32.8001C11.0174 33.7001 12.2174 35.8001 12.2174 37.5001C12.2174 39.2001 11.0174 39.9001 9.51738 39.1001C8.01738 38.2001 6.81738 36.1001 6.81738 34.4001C6.81738 32.6001 8.01738 31.9001 9.51738 32.8001Z" fill="#BDC1C5"/>
<path d="M42.9172 42.2002C40.2172 43.8002 35.8172 43.8002 33.1172 42.2002V58.1002C35.8172 59.7002 40.2172 59.7002 42.9172 58.1002V42.2002Z" fill="url(#paint0_linear_1078_496)"/>
<path d="M42.917 58.1001L72.017 41.3001C73.417 40.5001 74.017 39.5001 74.017 38.5001V22.6001C74.017 23.6001 73.317 24.7001 72.017 25.4001L42.917 42.2001V58.1001Z" fill="#BDC1C5"/>
<path d="M60.4175 11.0001C60.4175 12.6001 59.8175 13.6001 59.0175 14.2001L41.4175 24.3001C40.5175 24.9001 39.2175 24.8001 37.8175 24.0001C35.1175 22.4001 32.9175 18.6001 32.9175 15.5001C32.9175 13.8001 33.5175 12.7001 34.5175 12.2001C34.4175 12.2001 34.4175 12.3001 34.3175 12.3001L51.9175 2.1001C52.8175 1.6001 54.0175 1.7001 55.4175 2.4001C58.2175 4.0001 60.4175 7.9001 60.4175 11.0001Z" fill="url(#paint1_linear_1078_496)"/>
<path d="M43.8173 22.5001C43.8173 24.5001 43.1173 26.0001 41.9173 26.6001L40.2173 27.6001C39.0173 28.3001 37.4173 28.2001 35.6173 27.2001C32.0173 25.1001 29.2173 20.2001 29.2173 16.1001C29.2173 14.0001 29.9173 12.6001 31.1173 11.9001L32.8173 10.9001C34.0173 10.2001 35.6173 10.3001 37.4173 11.3001C41.0173 13.4001 43.9173 18.4001 43.8173 22.5001Z" fill="#AEB3B7"/>
<path d="M35.7173 12.4001C39.2173 14.4001 42.1173 19.4001 42.1173 23.5001C42.1173 27.6001 39.2173 29.2001 35.6173 27.2001C32.0173 25.1001 29.2173 20.2001 29.2173 16.1001C29.2173 12.0001 32.1173 10.4001 35.7173 12.4001Z" fill="#D3D5D8"/>
<path d="M35.7173 16.4001C37.4173 17.4001 38.7173 19.7001 38.7173 21.6001C38.7173 23.5001 37.3173 24.3001 35.7173 23.3001C34.0173 22.3001 32.7173 20.0001 32.7173 18.1001C32.7173 16.2001 34.0173 15.4001 35.7173 16.4001Z" fill="#65696D"/>
<path d="M53.2171 1.8C53.9171 1.8 54.6171 2 55.4171 2.5C58.2171 4 60.4171 7.8 60.4171 11C60.4171 12.6 59.8171 13.6 59.0171 14.2L43.9171 23C43.8171 24.8 43.1171 26.1 42.0171 26.7L40.3171 27.7C39.8171 28 39.2171 28.2 38.5171 28.2C37.6171 28.2 36.7171 27.9 35.6171 27.3C32.0171 25.2 29.2171 20.3 29.2171 16.2C29.2171 14.1 29.9171 12.7 31.1171 12L32.8171 11C33.3171 10.7 33.9171 10.6 34.5171 10.6C35.1171 10.6 35.9171 10.8 36.6171 11.1L51.9171 2.2C52.3171 1.9 52.7171 1.8 53.2171 1.8ZM53.2171 0C52.4171 0 51.7171 0.2 51.0171 0.6L36.5171 9C35.8171 8.8 35.2171 8.7 34.6171 8.7C33.6171 8.7 32.8171 8.9 32.0171 9.4L30.3171 10.4C28.5171 11.4 27.5171 13.5 27.5171 16.1C27.5171 20.8 30.7171 26.4 34.8171 28.8C36.1171 29.5 37.4171 29.9 38.6171 29.9C39.6171 29.9 40.5171 29.7 41.3171 29.2L42.9171 28.2C44.3171 27.4 45.2171 25.9 45.6171 24L59.9171 15.7C61.4171 14.8 62.2171 13.1 62.2171 11C62.2171 7.2 59.7171 2.8 56.4171 0.9C55.3171 0.3 54.2171 0 53.2171 0Z" fill="#65696D"/>
<path d="M27.4173 31.6999C26.7173 31.6999 26.2173 31.1999 26.2173 30.4999V26.6999C26.2173 25.0999 27.2173 23.2999 28.6173 22.4999L34.2173 19.2999C34.8173 18.9999 35.5173 19.1999 35.9173 19.6999C36.2173 20.2999 36.0173 20.9999 35.5173 21.3999L29.9173 24.5999C29.3173 24.9999 28.7173 25.9999 28.7173 26.6999V30.4999C28.7173 31.0999 28.1173 31.6999 27.4173 31.6999Z" fill="#9CA1A5"/>
<path d="M0.217285 5C2.97871 5 5.21729 2.76142 5.21729 0C5.21729 -2.76142 2.97871 -5 0.217285 -5C-2.54414 -5 -4.78271 -2.76142 -4.78271 0C-4.78271 2.76142 -2.54414 5 0.217285 5Z" fill="#65696D"/>
</g>
<defs>
<linearGradient id="paint0_linear_1078_496" x1="33.0992" y1="50.7502" x2="42.9342" y2="50.7502" gradientUnits="userSpaceOnUse">
<stop stop-color="#DCDEE0"/>
<stop offset="1" stop-color="#BDC1C5"/>
</linearGradient>
<linearGradient id="paint1_linear_1078_496" x1="33.0995" y1="54.7334" x2="42.9345" y2="54.7334" gradientUnits="userSpaceOnUse">
<stop stop-color="#D3D5D8"/>
<stop offset="1" stop-color="#AEB3B7"/>
</linearGradient>
<clipPath id="clip0_1078_496">
<rect width="75.6" height="61.1" fill="white" transform="translate(0.217285)"/>
</clipPath>
</defs>
</svg>
